<?xml version="1.0" encoding="UTF-8" standalone="no"?><!DOCTYPE svg PUBLIC "-//W3C//DTD SVG 1.1//EN" "http://www.w3.org/Graphics/SVG/1.1/DTD/svg11.dtd"><!-- Generated by graphviz version 2.40.1 (20161225.0304)
 --><!-- Title: G Pages: 1 --><svg xmlns="http://www.w3.org/2000/svg" xmlns:xlink="http://www.w3.org/1999/xlink" width="645pt" height="2046pt" viewBox="0.00 0.00 645.00 2046.40">
<g id="graph0" class="graph" transform="scale(1 1) rotate(0) translate(4 2042.4)">
<title>G</title>
<polygon fill="#ffffff" stroke="transparent" points="-4,4 -4,-2042.4 641,-2042.4 641,4 -4,4"/>
<text text-anchor="middle" x="318.5" y="-8.2" font-family="Times,serif" font-size="14.00" fill="#000000">Query Plan - Generated By hidva/gpplan2dot</text>
<g id="clust1" class="cluster">
<title>cluster_1</title>
<polygon fill="#ffc0cb" stroke="#ffc0cb" points="8,-1636.8 8,-1736 190,-1736 190,-1636.8 8,-1636.8"/>
<text text-anchor="middle" x="99" y="-1661.8" font-family="Times,serif" font-size="14.00" fill="#000000">slice1</text>
<text text-anchor="middle" x="99" y="-1645" font-family="Times,serif" font-size="14.00" fill="#000000">(size=3 type=PrimaryReader)</text>
</g>
<g id="clust2" class="cluster">
<title>cluster_2</title>
<polygon fill="#ffc0cb" stroke="#ffc0cb" points="21,-32.8 21,-132 203,-132 203,-32.8 21,-32.8"/>
<text text-anchor="middle" x="112" y="-57.8" font-family="Times,serif" font-size="14.00" fill="#000000">slice2</text>
<text text-anchor="middle" x="112" y="-41" font-family="Times,serif" font-size="14.00" fill="#000000">(size=3 type=PrimaryReader)</text>
</g>
<g id="clust3" class="cluster">
<title>cluster_3</title>
<polygon fill="#ffc0cb" stroke="#ffc0cb" points="42,-209.6 42,-386.4 337,-386.4 337,-209.6 42,-209.6"/>
<text text-anchor="middle" x="189.5" y="-234.6" font-family="Times,serif" font-size="14.00" fill="#000000">slice3</text>
<text text-anchor="middle" x="189.5" y="-217.8" font-family="Times,serif" font-size="14.00" fill="#000000">(size=3 type=PrimaryReader)</text>
</g>
<g id="clust4" class="cluster">
<title>cluster_4</title>
<polygon fill="#ffc0cb" stroke="#ffc0cb" points="113,-464 113,-640.8 415,-640.8 415,-464 113,-464"/>
<text text-anchor="middle" x="264" y="-489" font-family="Times,serif" font-size="14.00" fill="#000000">slice4</text>
<text text-anchor="middle" x="264" y="-472.2" font-family="Times,serif" font-size="14.00" fill="#000000">(size=3 type=PrimaryReader)</text>
</g>
<g id="clust5" class="cluster">
<title>cluster_5</title>
<polygon fill="#ffc0cb" stroke="#ffc0cb" points="159,-718.4 159,-1205.6 629,-1205.6 629,-718.4 159,-718.4"/>
<text text-anchor="middle" x="394" y="-743.4" font-family="Times,serif" font-size="14.00" fill="#000000">slice5</text>
<text text-anchor="middle" x="394" y="-726.6" font-family="Times,serif" font-size="14.00" fill="#000000">(size=3 type=PrimaryReader)</text>
</g>
<g id="clust6" class="cluster">
<title>cluster_6</title>
<polygon fill="#ffc0cb" stroke="#ffc0cb" points="175,-1283.2 175,-1460 498,-1460 498,-1283.2 175,-1283.2"/>
<text text-anchor="middle" x="336.5" y="-1308.2" font-family="Times,serif" font-size="14.00" fill="#000000">slice6</text>
<text text-anchor="middle" x="336.5" y="-1291.4" font-family="Times,serif" font-size="14.00" fill="#000000">(size=3 type=PrimaryReader)</text>
</g>
<g id="clust7" class="cluster">
<title>cluster_7</title>
<polygon fill="#ffc0cb" stroke="#ffc0cb" points="201,-1537.6 201,-1968.8 524,-1968.8 524,-1537.6 201,-1537.6"/>
<text text-anchor="middle" x="362.5" y="-1562.6" font-family="Times,serif" font-size="14.00" fill="#000000">slice7</text>
<text text-anchor="middle" x="362.5" y="-1545.8" font-family="Times,serif" font-size="14.00" fill="#000000">(size=3 type=PrimaryReader)</text>
</g>
<!-- Plan6 -->
<g id="node1" class="node">
<title>Plan6</title>
<polygon fill="#000000" stroke="#000000" points="179.1729,-1727.8019 62.8271,-1727.8019 62.8271,-1686.5981 179.1729,-1686.5981 179.1729,-1727.8019"/>
<text text-anchor="middle" x="121" y="-1711.4" font-family="Times,serif" font-size="14.00" fill="#ffffff">SeqScan</text>
<text text-anchor="middle" x="121" y="-1694.6" font-family="Times,serif" font-size="14.00" fill="#ffffff">Rows=7 Width=4</text>
</g>
<!-- Plan5 -->
<g id="node2" class="node">
<title>Plan5</title>
<polygon fill="#000000" stroke="#000000" points="191.7021,-1805.4019 50.2979,-1805.4019 50.2979,-1764.1981 191.7021,-1764.1981 191.7021,-1805.4019"/>
<text text-anchor="middle" x="121" y="-1789" font-family="Times,serif" font-size="14.00" fill="#ffffff">BroadcastMotion 3→3</text>
<text text-anchor="middle" x="121" y="-1772.2" font-family="Times,serif" font-size="14.00" fill="#ffffff">Rows=21 Width=4</text>
</g>
<!-- Plan6&#45;&gt;Plan5 -->
<g id="edge1" class="edge">
<title>Plan6-&gt;Plan5</title>
<path fill="none" stroke="#000000" d="M121,-1727.9954C121,-1735.9109 121,-1745.1109 121,-1753.7722"/>
<polygon fill="#000000" stroke="#000000" points="117.5001,-1753.9472 121,-1763.9472 124.5001,-1753.9473 117.5001,-1753.9472"/>
</g>
<!-- Plan4 -->
<g id="node3" class="node">
<title>Plan4</title>
<polygon fill="#000000" stroke="#000000" points="346.6729,-1883.0019 209.3271,-1883.0019 209.3271,-1841.7981 346.6729,-1841.7981 346.6729,-1883.0019"/>
<text text-anchor="middle" x="278" y="-1866.6" font-family="Times,serif" font-size="14.00" fill="#ffffff">HashJoin</text>
<text text-anchor="middle" x="278" y="-1849.8" font-family="Times,serif" font-size="14.00" fill="#ffffff">Rows=10 Width=706</text>
</g>
<!-- Plan5&#45;&gt;Plan4 -->
<g id="edge2" class="edge">
<title>Plan5-&gt;Plan4</title>
<path fill="none" stroke="#000000" d="M163.0731,-1805.5954C182.7745,-1815.3331 206.4092,-1827.015 227.1088,-1837.2461"/>
<polygon fill="#000000" stroke="#000000" points="225.5676,-1840.3885 236.0832,-1841.6819 228.6693,-1834.1132 225.5676,-1840.3885"/>
</g>
<!-- Plan2 -->
<g id="node34" class="node">
<title>Plan2</title>
<polygon fill="#000000" stroke="#000000" points="346.6729,-1960.6019 209.3271,-1960.6019 209.3271,-1919.3981 346.6729,-1919.3981 346.6729,-1960.6019"/>
<text text-anchor="middle" x="278" y="-1944.2" font-family="Times,serif" font-size="14.00" fill="#ffffff">Sort</text>
<text text-anchor="middle" x="278" y="-1927.4" font-family="Times,serif" font-size="14.00" fill="#ffffff">Rows=10 Width=706</text>
</g>
<!-- Plan4&#45;&gt;Plan2 -->
<g id="edge33" class="edge">
<title>Plan4-&gt;Plan2</title>
<path fill="none" stroke="#000000" d="M278,-1883.1954C278,-1891.1109 278,-1900.3109 278,-1908.9722"/>
<polygon fill="#000000" stroke="#000000" points="274.5001,-1909.1472 278,-1919.1472 281.5001,-1909.1473 274.5001,-1909.1472"/>
</g>
<!-- Plan10 -->
<g id="node4" class="node">
<title>Plan10</title>
<polygon fill="#000000" stroke="#000000" points="515.6729,-1628.6019 364.3271,-1628.6019 364.3271,-1587.3981 515.6729,-1587.3981 515.6729,-1628.6019"/>
<text text-anchor="middle" x="440" y="-1612.2" font-family="Times,serif" font-size="14.00" fill="#ffffff">SeqScan</text>
<text text-anchor="middle" x="440" y="-1595.4" font-family="Times,serif" font-size="14.00" fill="#ffffff">Rows=7000 Width=112</text>
</g>
<!-- Plan9 -->
<g id="node5" class="node">
<title>Plan9</title>
<polygon fill="#000000" stroke="#000000" points="346.6729,-1727.8019 209.3271,-1727.8019 209.3271,-1686.5981 346.6729,-1686.5981 346.6729,-1727.8019"/>
<text text-anchor="middle" x="278" y="-1711.4" font-family="Times,serif" font-size="14.00" fill="#ffffff">HashJoin</text>
<text text-anchor="middle" x="278" y="-1694.6" font-family="Times,serif" font-size="14.00" fill="#ffffff">Rows=10 Width=710</text>
</g>
<!-- Plan10&#45;&gt;Plan9 -->
<g id="edge3" class="edge">
<title>Plan10-&gt;Plan9</title>
<path fill="none" stroke="#000000" d="M406.0395,-1628.7956C381.199,-1644.0066 347.326,-1664.7485 320.6595,-1681.0776"/>
<polygon fill="#000000" stroke="#000000" points="318.6162,-1678.2247 311.9158,-1686.4318 322.2717,-1684.1944 318.6162,-1678.2247"/>
</g>
<!-- Plan8 -->
<g id="node33" class="node">
<title>Plan8</title>
<polygon fill="#000000" stroke="#000000" points="346.6729,-1805.4019 209.3271,-1805.4019 209.3271,-1764.1981 346.6729,-1764.1981 346.6729,-1805.4019"/>
<text text-anchor="middle" x="278" y="-1789" font-family="Times,serif" font-size="14.00" fill="#ffffff">Hash</text>
<text text-anchor="middle" x="278" y="-1772.2" font-family="Times,serif" font-size="14.00" fill="#ffffff">Rows=10 Width=710</text>
</g>
<!-- Plan9&#45;&gt;Plan8 -->
<g id="edge31" class="edge">
<title>Plan9-&gt;Plan8</title>
<path fill="none" stroke="#000000" d="M278,-1727.9954C278,-1735.9109 278,-1745.1109 278,-1753.7722"/>
<polygon fill="#000000" stroke="#000000" points="274.5001,-1753.9472 278,-1763.9472 281.5001,-1753.9473 274.5001,-1753.9472"/>
</g>
<!-- Plan15 -->
<g id="node6" class="node">
<title>Plan15</title>
<polygon fill="#000000" stroke="#000000" points="489.6729,-1374.2019 338.3271,-1374.2019 338.3271,-1332.9981 489.6729,-1332.9981 489.6729,-1374.2019"/>
<text text-anchor="middle" x="414" y="-1357.8" font-family="Times,serif" font-size="14.00" fill="#ffffff">SeqScan</text>
<text text-anchor="middle" x="414" y="-1341" font-family="Times,serif" font-size="14.00" fill="#ffffff">Rows=6100 Width=502</text>
</g>
<!-- Plan13 -->
<g id="node7" class="node">
<title>Plan13</title>
<polygon fill="#000000" stroke="#000000" points="346.6729,-1451.8019 209.3271,-1451.8019 209.3271,-1410.5981 346.6729,-1410.5981 346.6729,-1451.8019"/>
<text text-anchor="middle" x="278" y="-1435.4" font-family="Times,serif" font-size="14.00" fill="#ffffff">HashJoin</text>
<text text-anchor="middle" x="278" y="-1418.6" font-family="Times,serif" font-size="14.00" fill="#ffffff">Rows=10 Width=606</text>
</g>
<!-- Plan15&#45;&gt;Plan13 -->
<g id="edge4" class="edge">
<title>Plan15-&gt;Plan13</title>
<path fill="none" stroke="#000000" d="M377.5545,-1374.3954C360.938,-1383.8766 341.0915,-1395.2008 323.5066,-1405.2345"/>
<polygon fill="#000000" stroke="#000000" points="321.4971,-1402.3513 314.5461,-1410.3472 324.9663,-1408.4312 321.4971,-1402.3513"/>
</g>
<!-- Plan12 -->
<g id="node31" class="node">
<title>Plan12</title>
<polygon fill="#000000" stroke="#000000" points="354.6596,-1529.4019 201.3404,-1529.4019 201.3404,-1488.1981 354.6596,-1488.1981 354.6596,-1529.4019"/>
<text text-anchor="middle" x="278" y="-1513" font-family="Times,serif" font-size="14.00" fill="#ffffff">RedistributeMotion 3→3</text>
<text text-anchor="middle" x="278" y="-1496.2" font-family="Times,serif" font-size="14.00" fill="#ffffff">Rows=10 Width=606</text>
</g>
<!-- Plan13&#45;&gt;Plan12 -->
<g id="edge28" class="edge">
<title>Plan13-&gt;Plan12</title>
<path fill="none" stroke="#000000" d="M278,-1451.9954C278,-1459.9109 278,-1469.1109 278,-1477.7722"/>
<polygon fill="#000000" stroke="#000000" points="274.5001,-1477.9472 278,-1487.9472 281.5001,-1477.9473 274.5001,-1477.9472"/>
</g>
<!-- Plan21 -->
<g id="node8" class="node">
<title>Plan21</title>
<polygon fill="#000000" stroke="#000000" points="621.1729,-1042.2019 476.8271,-1042.2019 476.8271,-1000.9981 621.1729,-1000.9981 621.1729,-1042.2019"/>
<text text-anchor="middle" x="549" y="-1025.8" font-family="Times,serif" font-size="14.00" fill="#ffffff">SeqScan</text>
<text text-anchor="middle" x="549" y="-1009" font-family="Times,serif" font-size="14.00" fill="#ffffff">Rows=7000 Width=16</text>
</g>
<!-- Plan20 -->
<g id="node9" class="node">
<title>Plan20</title>
<polygon fill="#000000" stroke="#000000" points="466.6729,-1119.8019 329.3271,-1119.8019 329.3271,-1078.5981 466.6729,-1078.5981 466.6729,-1119.8019"/>
<text text-anchor="middle" x="398" y="-1103.4" font-family="Times,serif" font-size="14.00" fill="#ffffff">HashJoin</text>
<text text-anchor="middle" x="398" y="-1086.6" font-family="Times,serif" font-size="14.00" fill="#ffffff">Rows=13 Width=124</text>
</g>
<!-- Plan21&#45;&gt;Plan20 -->
<g id="edge5" class="edge">
<title>Plan21-&gt;Plan20</title>
<path fill="none" stroke="#000000" d="M508.5348,-1042.3954C489.6713,-1052.0895 467.0587,-1063.7102 447.2143,-1073.9084"/>
<polygon fill="#000000" stroke="#000000" points="445.6093,-1070.798 438.3149,-1078.4819 448.8089,-1077.024 445.6093,-1070.798"/>
</g>
<!-- Plan18 -->
<g id="node12" class="node">
<title>Plan18</title>
<polygon fill="#000000" stroke="#000000" points="320.6729,-1197.4019 183.3271,-1197.4019 183.3271,-1156.1981 320.6729,-1156.1981 320.6729,-1197.4019"/>
<text text-anchor="middle" x="252" y="-1181" font-family="Times,serif" font-size="14.00" fill="#ffffff">HashJoin</text>
<text text-anchor="middle" x="252" y="-1164.2" font-family="Times,serif" font-size="14.00" fill="#ffffff">Rows=10 Width=112</text>
</g>
<!-- Plan20&#45;&gt;Plan18 -->
<g id="edge8" class="edge">
<title>Plan20-&gt;Plan18</title>
<path fill="none" stroke="#000000" d="M358.8747,-1119.9954C340.718,-1129.6458 318.9689,-1141.2056 299.8442,-1151.3705"/>
<polygon fill="#000000" stroke="#000000" points="298.1675,-1148.2979 290.98,-1156.0819 301.4529,-1154.4791 298.1675,-1148.2979"/>
</g>
<!-- Plan23 -->
<g id="node10" class="node">
<title>Plan23</title>
<polygon fill="#000000" stroke="#000000" points="459.1729,-964.6019 328.8271,-964.6019 328.8271,-923.3981 459.1729,-923.3981 459.1729,-964.6019"/>
<text text-anchor="middle" x="394" y="-948.2" font-family="Times,serif" font-size="14.00" fill="#ffffff">SeqScan</text>
<text text-anchor="middle" x="394" y="-931.4" font-family="Times,serif" font-size="14.00" fill="#ffffff">Rows=1 Width=108</text>
</g>
<!-- Plan22 -->
<g id="node11" class="node">
<title>Plan22</title>
<polygon fill="#000000" stroke="#000000" points="459.1729,-1042.2019 328.8271,-1042.2019 328.8271,-1000.9981 459.1729,-1000.9981 459.1729,-1042.2019"/>
<text text-anchor="middle" x="394" y="-1025.8" font-family="Times,serif" font-size="14.00" fill="#ffffff">Hash</text>
<text text-anchor="middle" x="394" y="-1009" font-family="Times,serif" font-size="14.00" fill="#ffffff">Rows=1 Width=108</text>
</g>
<!-- Plan23&#45;&gt;Plan22 -->
<g id="edge6" class="edge">
<title>Plan23-&gt;Plan22</title>
<path fill="none" stroke="#000000" d="M394,-964.7954C394,-972.7109 394,-981.9109 394,-990.5722"/>
<polygon fill="#000000" stroke="#000000" points="390.5001,-990.7472 394,-1000.7472 397.5001,-990.7473 390.5001,-990.7472"/>
</g>
<!-- Plan22&#45;&gt;Plan20 -->
<g id="edge7" class="edge">
<title>Plan22-&gt;Plan20</title>
<path fill="none" stroke="#000000" d="M395.0719,-1042.3954C395.4799,-1050.3109 395.9542,-1059.5109 396.4006,-1068.1722"/>
<polygon fill="#000000" stroke="#000000" points="392.9149,-1068.5407 396.9251,-1078.3472 399.9056,-1068.1803 392.9149,-1068.5407"/>
</g>
<!-- Plan17 -->
<g id="node29" class="node">
<title>Plan17</title>
<polygon fill="#000000" stroke="#000000" points="328.6596,-1275.0019 175.3404,-1275.0019 175.3404,-1233.7981 328.6596,-1233.7981 328.6596,-1275.0019"/>
<text text-anchor="middle" x="252" y="-1258.6" font-family="Times,serif" font-size="14.00" fill="#ffffff">RedistributeMotion 3→3</text>
<text text-anchor="middle" x="252" y="-1241.8" font-family="Times,serif" font-size="14.00" fill="#ffffff">Rows=10 Width=112</text>
</g>
<!-- Plan18&#45;&gt;Plan17 -->
<g id="edge25" class="edge">
<title>Plan18-&gt;Plan17</title>
<path fill="none" stroke="#000000" d="M252,-1197.5954C252,-1205.5109 252,-1214.7109 252,-1223.3722"/>
<polygon fill="#000000" stroke="#000000" points="248.5001,-1223.5472 252,-1233.5472 255.5001,-1223.5473 248.5001,-1223.5472"/>
</g>
<!-- Plan28 -->
<g id="node13" class="node">
<title>Plan28</title>
<polygon fill="#000000" stroke="#000000" points="462.1729,-809.4019 317.8271,-809.4019 317.8271,-768.1981 462.1729,-768.1981 462.1729,-809.4019"/>
<text text-anchor="middle" x="390" y="-793" font-family="Times,serif" font-size="14.00" fill="#ffffff">SeqScan</text>
<text text-anchor="middle" x="390" y="-776.2" font-family="Times,serif" font-size="14.00" fill="#ffffff">Rows=7000 Width=16</text>
</g>
<!-- Plan27 -->
<g id="node14" class="node">
<title>Plan27</title>
<polygon fill="#000000" stroke="#000000" points="311.1729,-887.0019 166.8271,-887.0019 166.8271,-845.7981 311.1729,-845.7981 311.1729,-887.0019"/>
<text text-anchor="middle" x="239" y="-870.6" font-family="Times,serif" font-size="14.00" fill="#ffffff">HashJoin</text>
<text text-anchor="middle" x="239" y="-853.8" font-family="Times,serif" font-size="14.00" fill="#ffffff">Rows=2122 Width=12</text>
</g>
<!-- Plan28&#45;&gt;Plan27 -->
<g id="edge9" class="edge">
<title>Plan28-&gt;Plan27</title>
<path fill="none" stroke="#000000" d="M349.5348,-809.5954C330.6713,-819.2895 308.0587,-830.9102 288.2143,-841.1084"/>
<polygon fill="#000000" stroke="#000000" points="286.6093,-837.998 279.3149,-845.6819 289.8089,-844.224 286.6093,-837.998"/>
</g>
<!-- Plan26 -->
<g id="node26" class="node">
<title>Plan26</title>
<polygon fill="#000000" stroke="#000000" points="311.1729,-964.6019 166.8271,-964.6019 166.8271,-923.3981 311.1729,-923.3981 311.1729,-964.6019"/>
<text text-anchor="middle" x="239" y="-948.2" font-family="Times,serif" font-size="14.00" fill="#ffffff">Aggregate</text>
<text text-anchor="middle" x="239" y="-931.4" font-family="Times,serif" font-size="14.00" fill="#ffffff">Rows=1000 Width=12</text>
</g>
<!-- Plan27&#45;&gt;Plan26 -->
<g id="edge21" class="edge">
<title>Plan27-&gt;Plan26</title>
<path fill="none" stroke="#000000" d="M239,-887.1954C239,-895.1109 239,-904.3109 239,-912.9722"/>
<polygon fill="#000000" stroke="#000000" points="235.5001,-913.1472 239,-923.1472 242.5001,-913.1473 235.5001,-913.1472"/>
</g>
<!-- Plan33 -->
<g id="node15" class="node">
<title>Plan33</title>
<polygon fill="#000000" stroke="#000000" points="406.6729,-555.0019 269.3271,-555.0019 269.3271,-513.7981 406.6729,-513.7981 406.6729,-555.0019"/>
<text text-anchor="middle" x="338" y="-538.6" font-family="Times,serif" font-size="14.00" fill="#ffffff">SeqScan</text>
<text text-anchor="middle" x="338" y="-521.8" font-family="Times,serif" font-size="14.00" fill="#ffffff">Rows=6100 Width=8</text>
</g>
<!-- Plan31 -->
<g id="node16" class="node">
<title>Plan31</title>
<polygon fill="#000000" stroke="#000000" points="300.1729,-632.6019 169.8271,-632.6019 169.8271,-591.3981 300.1729,-591.3981 300.1729,-632.6019"/>
<text text-anchor="middle" x="235" y="-616.2" font-family="Times,serif" font-size="14.00" fill="#ffffff">HashJoin</text>
<text text-anchor="middle" x="235" y="-599.4" font-family="Times,serif" font-size="14.00" fill="#ffffff">Rows=303 Width=4</text>
</g>
<!-- Plan33&#45;&gt;Plan31 -->
<g id="edge10" class="edge">
<title>Plan33-&gt;Plan31</title>
<path fill="none" stroke="#000000" d="M310.3979,-555.1954C298.2751,-564.3286 283.8824,-575.1721 270.9375,-584.9248"/>
<polygon fill="#000000" stroke="#000000" points="268.5592,-582.3344 262.6783,-591.1472 272.7714,-587.9253 268.5592,-582.3344"/>
</g>
<!-- Plan30 -->
<g id="node24" class="node">
<title>Plan30</title>
<polygon fill="#000000" stroke="#000000" points="305.7021,-710.2019 164.2979,-710.2019 164.2979,-668.9981 305.7021,-668.9981 305.7021,-710.2019"/>
<text text-anchor="middle" x="235" y="-693.8" font-family="Times,serif" font-size="14.00" fill="#ffffff">BroadcastMotion 3→3</text>
<text text-anchor="middle" x="235" y="-677" font-family="Times,serif" font-size="14.00" fill="#ffffff">Rows=910 Width=4</text>
</g>
<!-- Plan31&#45;&gt;Plan30 -->
<g id="edge18" class="edge">
<title>Plan31-&gt;Plan30</title>
<path fill="none" stroke="#000000" d="M235,-632.7954C235,-640.7109 235,-649.9109 235,-658.5722"/>
<polygon fill="#000000" stroke="#000000" points="231.5001,-658.7472 235,-668.7472 238.5001,-658.7473 231.5001,-658.7472"/>
</g>
<!-- Plan38 -->
<g id="node17" class="node">
<title>Plan38</title>
<polygon fill="#000000" stroke="#000000" points="328.6729,-300.6019 191.3271,-300.6019 191.3271,-259.3981 328.6729,-259.3981 328.6729,-300.6019"/>
<text text-anchor="middle" x="260" y="-284.2" font-family="Times,serif" font-size="14.00" fill="#ffffff">SeqScan</text>
<text text-anchor="middle" x="260" y="-267.4" font-family="Times,serif" font-size="14.00" fill="#ffffff">Rows=7000 Width=8</text>
</g>
<!-- Plan36 -->
<g id="node18" class="node">
<title>Plan36</title>
<polygon fill="#000000" stroke="#000000" points="247.6729,-378.2019 124.3271,-378.2019 124.3271,-336.9981 247.6729,-336.9981 247.6729,-378.2019"/>
<text text-anchor="middle" x="186" y="-361.8" font-family="Times,serif" font-size="14.00" fill="#ffffff">HashJoin</text>
<text text-anchor="middle" x="186" y="-345" font-family="Times,serif" font-size="14.00" fill="#ffffff">Rows=50 Width=4</text>
</g>
<!-- Plan38&#45;&gt;Plan36 -->
<g id="edge11" class="edge">
<title>Plan38-&gt;Plan36</title>
<path fill="none" stroke="#000000" d="M240.1694,-300.7954C231.7916,-309.5807 221.9049,-319.9484 212.8864,-329.4056"/>
<polygon fill="#000000" stroke="#000000" points="210.2537,-327.0948 205.8854,-336.7472 215.3196,-331.9257 210.2537,-327.0948"/>
</g>
<!-- Plan35 -->
<g id="node22" class="node">
<title>Plan35</title>
<polygon fill="#000000" stroke="#000000" points="256.7021,-455.8019 115.2979,-455.8019 115.2979,-414.5981 256.7021,-414.5981 256.7021,-455.8019"/>
<text text-anchor="middle" x="186" y="-439.4" font-family="Times,serif" font-size="14.00" fill="#ffffff">BroadcastMotion 3→3</text>
<text text-anchor="middle" x="186" y="-422.6" font-family="Times,serif" font-size="14.00" fill="#ffffff">Rows=149 Width=4</text>
</g>
<!-- Plan36&#45;&gt;Plan35 -->
<g id="edge15" class="edge">
<title>Plan36-&gt;Plan35</title>
<path fill="none" stroke="#000000" d="M186,-378.3954C186,-386.3109 186,-395.5109 186,-404.1722"/>
<polygon fill="#000000" stroke="#000000" points="182.5001,-404.3472 186,-414.3472 189.5001,-404.3473 182.5001,-404.3472"/>
</g>
<!-- Plan41 -->
<g id="node19" class="node">
<title>Plan41</title>
<polygon fill="#000000" stroke="#000000" points="170.1729,-123.8019 53.8271,-123.8019 53.8271,-82.5981 170.1729,-82.5981 170.1729,-123.8019"/>
<text text-anchor="middle" x="112" y="-107.4" font-family="Times,serif" font-size="14.00" fill="#ffffff">SeqScan</text>
<text text-anchor="middle" x="112" y="-90.6" font-family="Times,serif" font-size="14.00" fill="#ffffff">Rows=7 Width=4</text>
</g>
<!-- Plan40 -->
<g id="node20" class="node">
<title>Plan40</title>
<polygon fill="#000000" stroke="#000000" points="182.7021,-201.4019 41.2979,-201.4019 41.2979,-160.1981 182.7021,-160.1981 182.7021,-201.4019"/>
<text text-anchor="middle" x="112" y="-185" font-family="Times,serif" font-size="14.00" fill="#ffffff">BroadcastMotion 3→3</text>
<text text-anchor="middle" x="112" y="-168.2" font-family="Times,serif" font-size="14.00" fill="#ffffff">Rows=21 Width=4</text>
</g>
<!-- Plan41&#45;&gt;Plan40 -->
<g id="edge12" class="edge">
<title>Plan41-&gt;Plan40</title>
<path fill="none" stroke="#000000" d="M112,-123.9954C112,-131.9109 112,-141.1109 112,-149.7722"/>
<polygon fill="#000000" stroke="#000000" points="108.5001,-149.9472 112,-159.9472 115.5001,-149.9473 108.5001,-149.9472"/>
</g>
<!-- Plan39 -->
<g id="node21" class="node">
<title>Plan39</title>
<polygon fill="#000000" stroke="#000000" points="173.6729,-300.6019 50.3271,-300.6019 50.3271,-259.3981 173.6729,-259.3981 173.6729,-300.6019"/>
<text text-anchor="middle" x="112" y="-284.2" font-family="Times,serif" font-size="14.00" fill="#ffffff">Hash</text>
<text text-anchor="middle" x="112" y="-267.4" font-family="Times,serif" font-size="14.00" fill="#ffffff">Rows=21 Width=4</text>
</g>
<!-- Plan40&#45;&gt;Plan39 -->
<g id="edge13" class="edge">
<title>Plan40-&gt;Plan39</title>
<path fill="none" stroke="#000000" d="M112,-201.8378C112,-215.6083 112,-233.8344 112,-249.2225"/>
<polygon fill="#000000" stroke="#000000" points="108.5001,-249.3327 112,-259.3327 115.5001,-249.3328 108.5001,-249.3327"/>
</g>
<!-- Plan39&#45;&gt;Plan36 -->
<g id="edge14" class="edge">
<title>Plan39-&gt;Plan36</title>
<path fill="none" stroke="#000000" d="M131.8306,-300.7954C140.2084,-309.5807 150.0951,-319.9484 159.1136,-329.4056"/>
<polygon fill="#000000" stroke="#000000" points="156.6804,-331.9257 166.1146,-336.7472 161.7463,-327.0948 156.6804,-331.9257"/>
</g>
<!-- Plan34 -->
<g id="node23" class="node">
<title>Plan34</title>
<polygon fill="#000000" stroke="#000000" points="251.1729,-555.0019 120.8271,-555.0019 120.8271,-513.7981 251.1729,-513.7981 251.1729,-555.0019"/>
<text text-anchor="middle" x="186" y="-538.6" font-family="Times,serif" font-size="14.00" fill="#ffffff">Hash</text>
<text text-anchor="middle" x="186" y="-521.8" font-family="Times,serif" font-size="14.00" fill="#ffffff">Rows=149 Width=4</text>
</g>
<!-- Plan35&#45;&gt;Plan34 -->
<g id="edge16" class="edge">
<title>Plan35-&gt;Plan34</title>
<path fill="none" stroke="#000000" d="M186,-456.2378C186,-470.0083 186,-488.2344 186,-503.6225"/>
<polygon fill="#000000" stroke="#000000" points="182.5001,-503.7327 186,-513.7327 189.5001,-503.7328 182.5001,-503.7327"/>
</g>
<!-- Plan34&#45;&gt;Plan31 -->
<g id="edge17" class="edge">
<title>Plan34-&gt;Plan31</title>
<path fill="none" stroke="#000000" d="M199.1311,-555.1954C204.4588,-563.6328 210.7082,-573.5297 216.4847,-582.6778"/>
<polygon fill="#000000" stroke="#000000" points="213.5341,-584.5605 221.8327,-591.1472 219.4529,-580.8231 213.5341,-584.5605"/>
</g>
<!-- Plan29 -->
<g id="node25" class="node">
<title>Plan29</title>
<polygon fill="#000000" stroke="#000000" points="300.1729,-809.4019 169.8271,-809.4019 169.8271,-768.1981 300.1729,-768.1981 300.1729,-809.4019"/>
<text text-anchor="middle" x="235" y="-793" font-family="Times,serif" font-size="14.00" fill="#ffffff">Hash</text>
<text text-anchor="middle" x="235" y="-776.2" font-family="Times,serif" font-size="14.00" fill="#ffffff">Rows=910 Width=4</text>
</g>
<!-- Plan30&#45;&gt;Plan29 -->
<g id="edge19" class="edge">
<title>Plan30-&gt;Plan29</title>
<path fill="none" stroke="#000000" d="M235,-710.6378C235,-724.4083 235,-742.6344 235,-758.0225"/>
<polygon fill="#000000" stroke="#000000" points="231.5001,-758.1327 235,-768.1327 238.5001,-758.1328 231.5001,-758.1327"/>
</g>
<!-- Plan29&#45;&gt;Plan27 -->
<g id="edge20" class="edge">
<title>Plan29-&gt;Plan27</title>
<path fill="none" stroke="#000000" d="M236.0719,-809.5954C236.4799,-817.5109 236.9542,-826.7109 237.4006,-835.3722"/>
<polygon fill="#000000" stroke="#000000" points="233.9149,-835.7407 237.9251,-845.5472 240.9056,-835.3803 233.9149,-835.7407"/>
</g>
<!-- Plan25 -->
<g id="node27" class="node">
<title>Plan25</title>
<polygon fill="#000000" stroke="#000000" points="311.1729,-1042.2019 166.8271,-1042.2019 166.8271,-1000.9981 311.1729,-1000.9981 311.1729,-1042.2019"/>
<text text-anchor="middle" x="239" y="-1025.8" font-family="Times,serif" font-size="14.00" fill="#ffffff">SubqueryScan</text>
<text text-anchor="middle" x="239" y="-1009" font-family="Times,serif" font-size="14.00" fill="#ffffff">Rows=1000 Width=12</text>
</g>
<!-- Plan26&#45;&gt;Plan25 -->
<g id="edge22" class="edge">
<title>Plan26-&gt;Plan25</title>
<path fill="none" stroke="#000000" d="M239,-964.7954C239,-972.7109 239,-981.9109 239,-990.5722"/>
<polygon fill="#000000" stroke="#000000" points="235.5001,-990.7472 239,-1000.7472 242.5001,-990.7473 235.5001,-990.7472"/>
</g>
<!-- Plan24 -->
<g id="node28" class="node">
<title>Plan24</title>
<polygon fill="#000000" stroke="#000000" points="311.1729,-1119.8019 166.8271,-1119.8019 166.8271,-1078.5981 311.1729,-1078.5981 311.1729,-1119.8019"/>
<text text-anchor="middle" x="239" y="-1103.4" font-family="Times,serif" font-size="14.00" fill="#ffffff">Hash</text>
<text text-anchor="middle" x="239" y="-1086.6" font-family="Times,serif" font-size="14.00" fill="#ffffff">Rows=1000 Width=12</text>
</g>
<!-- Plan25&#45;&gt;Plan24 -->
<g id="edge23" class="edge">
<title>Plan25-&gt;Plan24</title>
<path fill="none" stroke="#000000" d="M239,-1042.3954C239,-1050.3109 239,-1059.5109 239,-1068.1722"/>
<polygon fill="#000000" stroke="#000000" points="235.5001,-1068.3472 239,-1078.3472 242.5001,-1068.3473 235.5001,-1068.3472"/>
</g>
<!-- Plan24&#45;&gt;Plan18 -->
<g id="edge24" class="edge">
<title>Plan24-&gt;Plan18</title>
<path fill="none" stroke="#000000" d="M242.4838,-1119.9954C243.8244,-1127.9978 245.385,-1137.3133 246.8498,-1146.0575"/>
<polygon fill="#000000" stroke="#000000" points="243.4024,-1146.663 248.5066,-1155.9472 250.3062,-1145.5063 243.4024,-1146.663"/>
</g>
<!-- Plan16 -->
<g id="node30" class="node">
<title>Plan16</title>
<polygon fill="#000000" stroke="#000000" points="320.6729,-1374.2019 183.3271,-1374.2019 183.3271,-1332.9981 320.6729,-1332.9981 320.6729,-1374.2019"/>
<text text-anchor="middle" x="252" y="-1357.8" font-family="Times,serif" font-size="14.00" fill="#ffffff">Hash</text>
<text text-anchor="middle" x="252" y="-1341" font-family="Times,serif" font-size="14.00" fill="#ffffff">Rows=10 Width=112</text>
</g>
<!-- Plan17&#45;&gt;Plan16 -->
<g id="edge26" class="edge">
<title>Plan17-&gt;Plan16</title>
<path fill="none" stroke="#000000" d="M252,-1275.4378C252,-1289.2083 252,-1307.4344 252,-1322.8225"/>
<polygon fill="#000000" stroke="#000000" points="248.5001,-1322.9327 252,-1332.9327 255.5001,-1322.9328 248.5001,-1322.9327"/>
</g>
<!-- Plan16&#45;&gt;Plan13 -->
<g id="edge27" class="edge">
<title>Plan16-&gt;Plan13</title>
<path fill="none" stroke="#000000" d="M258.9675,-1374.3954C261.6779,-1382.4848 264.8378,-1391.9159 267.7951,-1400.7424"/>
<polygon fill="#000000" stroke="#000000" points="264.5176,-1401.9772 271.0132,-1410.3472 271.1549,-1399.7533 264.5176,-1401.9772"/>
</g>
<!-- Plan11 -->
<g id="node32" class="node">
<title>Plan11</title>
<polygon fill="#000000" stroke="#000000" points="346.6729,-1628.6019 209.3271,-1628.6019 209.3271,-1587.3981 346.6729,-1587.3981 346.6729,-1628.6019"/>
<text text-anchor="middle" x="278" y="-1612.2" font-family="Times,serif" font-size="14.00" fill="#ffffff">Hash</text>
<text text-anchor="middle" x="278" y="-1595.4" font-family="Times,serif" font-size="14.00" fill="#ffffff">Rows=10 Width=606</text>
</g>
<!-- Plan12&#45;&gt;Plan11 -->
<g id="edge29" class="edge">
<title>Plan12-&gt;Plan11</title>
<path fill="none" stroke="#000000" d="M278,-1529.8378C278,-1543.6083 278,-1561.8344 278,-1577.2225"/>
<polygon fill="#000000" stroke="#000000" points="274.5001,-1577.3327 278,-1587.3327 281.5001,-1577.3328 274.5001,-1577.3327"/>
</g>
<!-- Plan11&#45;&gt;Plan9 -->
<g id="edge30" class="edge">
<title>Plan11-&gt;Plan9</title>
<path fill="none" stroke="#000000" d="M278,-1629.0378C278,-1642.8083 278,-1661.0344 278,-1676.4225"/>
<polygon fill="#000000" stroke="#000000" points="274.5001,-1676.5327 278,-1686.5327 281.5001,-1676.5328 274.5001,-1676.5327"/>
</g>
<!-- Plan8&#45;&gt;Plan4 -->
<g id="edge32" class="edge">
<title>Plan8-&gt;Plan4</title>
<path fill="none" stroke="#000000" d="M278,-1805.5954C278,-1813.5109 278,-1822.7109 278,-1831.3722"/>
<polygon fill="#000000" stroke="#000000" points="274.5001,-1831.5472 278,-1841.5472 281.5001,-1831.5473 274.5001,-1831.5472"/>
</g>
<!-- Plan1 -->
<g id="node35" class="node">
<title>Plan1</title>
<polygon fill="#000000" stroke="#000000" points="346.6729,-2038.2019 209.3271,-2038.2019 209.3271,-1996.9981 346.6729,-1996.9981 346.6729,-2038.2019"/>
<text text-anchor="middle" x="278" y="-2021.8" font-family="Times,serif" font-size="14.00" fill="#ffffff">GatherMotion 3→1</text>
<text text-anchor="middle" x="278" y="-2005" font-family="Times,serif" font-size="14.00" fill="#ffffff">Rows=10 Width=706</text>
</g>
<!-- Plan2&#45;&gt;Plan1 -->
<g id="edge34" class="edge">
<title>Plan2-&gt;Plan1</title>
<path fill="none" stroke="#000000" d="M278,-1960.7954C278,-1968.7109 278,-1977.9109 278,-1986.5722"/>
<polygon fill="#000000" stroke="#000000" points="274.5001,-1986.7472 278,-1996.7472 281.5001,-1986.7473 274.5001,-1986.7472"/>
</g>
</g>
</svg>