<?xml version="1.0" encoding="UTF-8" standalone="no"?>
<!DOCTYPE svg PUBLIC "-//W3C//DTD SVG 1.1//EN"
 "http://www.w3.org/Graphics/SVG/1.1/DTD/svg11.dtd">
<!-- Generated by graphviz version 2.43.0 (0)
 -->
<!-- Title: G Pages: 1 -->
<svg width="643pt" height="1875pt"
 viewBox="0.00 0.00 643.00 1874.79" xmlns="http://www.w3.org/2000/svg" xmlns:xlink="http://www.w3.org/1999/xlink">
<g id="graph0" class="graph" transform="scale(1 1) rotate(0) translate(4 1870.79)">
<title>G</title>
<polygon fill="white" stroke="transparent" points="-4,4 -4,-1870.79 639,-1870.79 639,4 -4,4"/>
<text text-anchor="middle" x="317.5" y="-6.8" font-family="Times,serif" font-size="14.00">Query Plan &#45; Generated By hidva/gpplan2dot</text>
<g id="clust1" class="cluster">
<title>cluster_1</title>
<polygon fill="pink" stroke="pink" points="8,-1497.42 8,-1585.42 190,-1585.42 190,-1497.42 8,-1497.42"/>
<text text-anchor="middle" x="99" y="-1518.22" font-family="Times,serif" font-size="14.00">slice1</text>
<text text-anchor="middle" x="99" y="-1504.22" font-family="Times,serif" font-size="14.00">(size=3 type=PrimaryReader)</text>
</g>
<g id="clust2" class="cluster">
<title>cluster_2</title>
<polygon fill="pink" stroke="pink" points="22,-30 22,-118 204,-118 204,-30 22,-30"/>
<text text-anchor="middle" x="113" y="-50.8" font-family="Times,serif" font-size="14.00">slice2</text>
<text text-anchor="middle" x="113" y="-36.8" font-family="Times,serif" font-size="14.00">(size=3 type=PrimaryReader)</text>
</g>
<g id="clust3" class="cluster">
<title>cluster_3</title>
<polygon fill="pink" stroke="pink" points="44,-190.68 44,-350.68 336,-350.68 336,-190.68 44,-190.68"/>
<text text-anchor="middle" x="190" y="-211.48" font-family="Times,serif" font-size="14.00">slice3</text>
<text text-anchor="middle" x="190" y="-197.48" font-family="Times,serif" font-size="14.00">(size=3 type=PrimaryReader)</text>
</g>
<g id="clust4" class="cluster">
<title>cluster_4</title>
<polygon fill="pink" stroke="pink" points="113,-423.37 113,-583.37 413,-583.37 413,-423.37 113,-423.37"/>
<text text-anchor="middle" x="263" y="-444.17" font-family="Times,serif" font-size="14.00">slice4</text>
<text text-anchor="middle" x="263" y="-430.17" font-family="Times,serif" font-size="14.00">(size=3 type=PrimaryReader)</text>
</g>
<g id="clust5" class="cluster">
<title>cluster_5</title>
<polygon fill="pink" stroke="pink" points="159,-656.05 159,-1104.05 627,-1104.05 627,-656.05 159,-656.05"/>
<text text-anchor="middle" x="393" y="-676.85" font-family="Times,serif" font-size="14.00">slice5</text>
<text text-anchor="middle" x="393" y="-662.85" font-family="Times,serif" font-size="14.00">(size=3 type=PrimaryReader)</text>
</g>
<g id="clust6" class="cluster">
<title>cluster_6</title>
<polygon fill="pink" stroke="pink" points="176,-1176.73 176,-1336.73 496,-1336.73 496,-1176.73 176,-1176.73"/>
<text text-anchor="middle" x="336" y="-1197.53" font-family="Times,serif" font-size="14.00">slice6</text>
<text text-anchor="middle" x="336" y="-1183.53" font-family="Times,serif" font-size="14.00">(size=3 type=PrimaryReader)</text>
</g>
<g id="clust7" class="cluster">
<title>cluster_7</title>
<polygon fill="pink" stroke="pink" points="202,-1409.42 202,-1802.1 522,-1802.1 522,-1409.42 202,-1409.42"/>
<text text-anchor="middle" x="362" y="-1430.22" font-family="Times,serif" font-size="14.00">slice7</text>
<text text-anchor="middle" x="362" y="-1416.22" font-family="Times,serif" font-size="14.00">(size=3 type=PrimaryReader)</text>
</g>
<!-- Plan6 -->
<g id="node1" class="node">
<title>Plan6</title>
<polygon fill="black" stroke="black" points="178.88,-1577.42 63.12,-1577.42 63.12,-1541.42 178.88,-1541.42 178.88,-1577.42"/>
<text text-anchor="middle" x="121" y="-1562.22" font-family="Times,serif" font-size="14.00" fill="white">SeqScan region</text>
<text text-anchor="middle" x="121" y="-1548.22" font-family="Times,serif" font-size="14.00" fill="white">Rows=7 Width=4</text>
</g>
<!-- Plan5 -->
<g id="node2" class="node">
<title>Plan5</title>
<polygon fill="black" stroke="black" points="193.02,-1649.94 48.98,-1649.94 48.98,-1613.57 193.02,-1613.57 193.02,-1649.94"/>
<text text-anchor="middle" x="121" y="-1634.9" font-family="Times,serif" font-size="14.00" fill="white">BroadcastMotion 3→3</text>
<text text-anchor="middle" x="121" y="-1620.22" font-family="Times,serif" font-size="14.00" fill="white">Rows=21 Width=4</text>
</g>
<!-- Plan6&#45;&gt;Plan5 -->
<g id="edge1" class="edge">
<title>Plan6&#45;&gt;Plan5</title>
<path fill="none" stroke="black" d="M121,-1577.45C121,-1585.19 121,-1594.56 121,-1603.26"/>
<polygon fill="black" stroke="black" points="117.5,-1603.4 121,-1613.4 124.5,-1603.4 117.5,-1603.4"/>
</g>
<!-- Plan4 -->
<g id="node3" class="node">
<title>Plan4</title>
<polygon fill="black" stroke="black" points="347.38,-1722.1 210.62,-1722.1 210.62,-1686.1 347.38,-1686.1 347.38,-1722.1"/>
<text text-anchor="middle" x="279" y="-1706.9" font-family="Times,serif" font-size="14.00" fill="white">HashJoin Inner</text>
<text text-anchor="middle" x="279" y="-1692.9" font-family="Times,serif" font-size="14.00" fill="white">Rows=10 Width=706</text>
</g>
<!-- Plan5&#45;&gt;Plan4 -->
<g id="edge2" class="edge">
<title>Plan5&#45;&gt;Plan4</title>
<path fill="none" stroke="black" d="M159.65,-1649.97C181.33,-1659.62 208.55,-1671.74 231.52,-1681.96"/>
<polygon fill="black" stroke="black" points="230.19,-1685.2 240.75,-1686.07 233.04,-1678.81 230.19,-1685.2"/>
</g>
<!-- Plan2 -->
<g id="node34" class="node">
<title>Plan2</title>
<polygon fill="black" stroke="black" points="347.38,-1794.1 210.62,-1794.1 210.62,-1758.1 347.38,-1758.1 347.38,-1794.1"/>
<text text-anchor="middle" x="279" y="-1778.9" font-family="Times,serif" font-size="14.00" fill="white">Sort</text>
<text text-anchor="middle" x="279" y="-1764.9" font-family="Times,serif" font-size="14.00" fill="white">Rows=10 Width=706</text>
</g>
<!-- Plan4&#45;&gt;Plan2 -->
<g id="edge33" class="edge">
<title>Plan4&#45;&gt;Plan2</title>
<path fill="none" stroke="black" d="M279,-1722.4C279,-1730.12 279,-1739.39 279,-1747.99"/>
<polygon fill="black" stroke="black" points="275.5,-1748 279,-1758 282.5,-1748 275.5,-1748"/>
</g>
<!-- Plan10 -->
<g id="node4" class="node">
<title>Plan10</title>
<polygon fill="black" stroke="black" points="513.87,-1489.42 364.13,-1489.42 364.13,-1453.42 513.87,-1453.42 513.87,-1489.42"/>
<text text-anchor="middle" x="439" y="-1474.22" font-family="Times,serif" font-size="14.00" fill="white">SeqScan nation</text>
<text text-anchor="middle" x="439" y="-1460.22" font-family="Times,serif" font-size="14.00" fill="white">Rows=7000 Width=112</text>
</g>
<!-- Plan9 -->
<g id="node5" class="node">
<title>Plan9</title>
<polygon fill="black" stroke="black" points="347.38,-1577.42 210.62,-1577.42 210.62,-1541.42 347.38,-1541.42 347.38,-1577.42"/>
<text text-anchor="middle" x="279" y="-1562.22" font-family="Times,serif" font-size="14.00" fill="white">HashJoin Inner</text>
<text text-anchor="middle" x="279" y="-1548.22" font-family="Times,serif" font-size="14.00" fill="white">Rows=10 Width=710</text>
</g>
<!-- Plan10&#45;&gt;Plan9 -->
<g id="edge3" class="edge">
<title>Plan10&#45;&gt;Plan9</title>
<path fill="none" stroke="black" d="M407.01,-1489.61C381.85,-1503.13 346.65,-1522.06 319.53,-1536.63"/>
<polygon fill="black" stroke="black" points="317.82,-1533.58 310.67,-1541.4 321.13,-1539.75 317.82,-1533.58"/>
</g>
<!-- Plan8 -->
<g id="node33" class="node">
<title>Plan8</title>
<polygon fill="black" stroke="black" points="347.38,-1649.76 210.62,-1649.76 210.62,-1613.76 347.38,-1613.76 347.38,-1649.76"/>
<text text-anchor="middle" x="279" y="-1634.56" font-family="Times,serif" font-size="14.00" fill="white">Hash</text>
<text text-anchor="middle" x="279" y="-1620.56" font-family="Times,serif" font-size="14.00" fill="white">Rows=10 Width=710</text>
</g>
<!-- Plan9&#45;&gt;Plan8 -->
<g id="edge31" class="edge">
<title>Plan9&#45;&gt;Plan8</title>
<path fill="none" stroke="black" d="M279,-1577.45C279,-1585.19 279,-1594.56 279,-1603.26"/>
<polygon fill="black" stroke="black" points="275.5,-1603.4 279,-1613.4 282.5,-1603.4 275.5,-1603.4"/>
</g>
<!-- Plan15 -->
<g id="node6" class="node">
<title>Plan15</title>
<polygon fill="black" stroke="black" points="488.38,-1256.73 337.62,-1256.73 337.62,-1220.73 488.38,-1220.73 488.38,-1256.73"/>
<text text-anchor="middle" x="413" y="-1241.53" font-family="Times,serif" font-size="14.00" fill="white">SeqScan supplier</text>
<text text-anchor="middle" x="413" y="-1227.53" font-family="Times,serif" font-size="14.00" fill="white">Rows=6100 Width=502</text>
</g>
<!-- Plan13 -->
<g id="node7" class="node">
<title>Plan13</title>
<polygon fill="black" stroke="black" points="346.38,-1328.73 209.62,-1328.73 209.62,-1292.73 346.38,-1292.73 346.38,-1328.73"/>
<text text-anchor="middle" x="278" y="-1313.53" font-family="Times,serif" font-size="14.00" fill="white">HashJoin Inner</text>
<text text-anchor="middle" x="278" y="-1299.53" font-family="Times,serif" font-size="14.00" fill="white">Rows=10 Width=606</text>
</g>
<!-- Plan15&#45;&gt;Plan13 -->
<g id="edge4" class="edge">
<title>Plan15&#45;&gt;Plan13</title>
<path fill="none" stroke="black" d="M379.98,-1256.86C361.92,-1266.22 339.35,-1277.92 320.05,-1287.93"/>
<polygon fill="black" stroke="black" points="318.42,-1284.83 311.15,-1292.54 321.64,-1291.05 318.42,-1284.83"/>
</g>
<!-- Plan12 -->
<g id="node31" class="node">
<title>Plan12</title>
<polygon fill="black" stroke="black" points="356.48,-1401.26 199.52,-1401.26 199.52,-1364.89 356.48,-1364.89 356.48,-1401.26"/>
<text text-anchor="middle" x="278" y="-1386.22" font-family="Times,serif" font-size="14.00" fill="white">RedistributeMotion 3→3</text>
<text text-anchor="middle" x="278" y="-1371.53" font-family="Times,serif" font-size="14.00" fill="white">Rows=10 Width=606</text>
</g>
<!-- Plan13&#45;&gt;Plan12 -->
<g id="edge28" class="edge">
<title>Plan13&#45;&gt;Plan12</title>
<path fill="none" stroke="black" d="M278,-1328.76C278,-1336.51 278,-1345.87 278,-1354.58"/>
<polygon fill="black" stroke="black" points="274.5,-1354.72 278,-1364.72 281.5,-1354.72 274.5,-1354.72"/>
</g>
<!-- Plan21 -->
<g id="node8" class="node">
<title>Plan21</title>
<polygon fill="black" stroke="black" points="618.88,-952.05 475.12,-952.05 475.12,-916.05 618.88,-916.05 618.88,-952.05"/>
<text text-anchor="middle" x="547" y="-936.85" font-family="Times,serif" font-size="14.00" fill="white">SeqScan partsupp</text>
<text text-anchor="middle" x="547" y="-922.85" font-family="Times,serif" font-size="14.00" fill="white">Rows=7000 Width=16</text>
</g>
<!-- Plan20 -->
<g id="node9" class="node">
<title>Plan20</title>
<polygon fill="black" stroke="black" points="465.38,-1024.05 328.62,-1024.05 328.62,-988.05 465.38,-988.05 465.38,-1024.05"/>
<text text-anchor="middle" x="397" y="-1008.85" font-family="Times,serif" font-size="14.00" fill="white">HashJoin Inner</text>
<text text-anchor="middle" x="397" y="-994.85" font-family="Times,serif" font-size="14.00" fill="white">Rows=13 Width=124</text>
</g>
<!-- Plan21&#45;&gt;Plan20 -->
<g id="edge5" class="edge">
<title>Plan21&#45;&gt;Plan20</title>
<path fill="none" stroke="black" d="M510.31,-952.17C489.98,-961.66 464.53,-973.54 442.9,-983.63"/>
<polygon fill="black" stroke="black" points="441.16,-980.58 433.57,-987.98 444.12,-986.93 441.16,-980.58"/>
</g>
<!-- Plan18 -->
<g id="node12" class="node">
<title>Plan18</title>
<polygon fill="black" stroke="black" points="319.87,-1096.05 184.13,-1096.05 184.13,-1060.05 319.87,-1060.05 319.87,-1096.05"/>
<text text-anchor="middle" x="252" y="-1080.85" font-family="Times,serif" font-size="14.00" fill="white">HashJoin Inner</text>
<text text-anchor="middle" x="252" y="-1066.85" font-family="Times,serif" font-size="14.00" fill="white">Rows=10 Width=112</text>
</g>
<!-- Plan20&#45;&gt;Plan18 -->
<g id="edge8" class="edge">
<title>Plan20&#45;&gt;Plan18</title>
<path fill="none" stroke="black" d="M361.53,-1024.17C341.88,-1033.66 317.28,-1045.54 296.37,-1055.63"/>
<polygon fill="black" stroke="black" points="294.84,-1052.48 287.36,-1059.98 297.88,-1058.79 294.84,-1052.48"/>
</g>
<!-- Plan23 -->
<g id="node10" class="node">
<title>Plan23</title>
<polygon fill="black" stroke="black" points="457.88,-880.05 328.12,-880.05 328.12,-844.05 457.88,-844.05 457.88,-880.05"/>
<text text-anchor="middle" x="393" y="-864.85" font-family="Times,serif" font-size="14.00" fill="white">SeqScan part</text>
<text text-anchor="middle" x="393" y="-850.85" font-family="Times,serif" font-size="14.00" fill="white">Rows=1 Width=108</text>
</g>
<!-- Plan22 -->
<g id="node11" class="node">
<title>Plan22</title>
<polygon fill="black" stroke="black" points="457.88,-952.05 328.12,-952.05 328.12,-916.05 457.88,-916.05 457.88,-952.05"/>
<text text-anchor="middle" x="393" y="-936.85" font-family="Times,serif" font-size="14.00" fill="white">Hash</text>
<text text-anchor="middle" x="393" y="-922.85" font-family="Times,serif" font-size="14.00" fill="white">Rows=1 Width=108</text>
</g>
<!-- Plan23&#45;&gt;Plan22 -->
<g id="edge6" class="edge">
<title>Plan23&#45;&gt;Plan22</title>
<path fill="none" stroke="black" d="M393,-880.35C393,-888.07 393,-897.34 393,-905.94"/>
<polygon fill="black" stroke="black" points="389.5,-905.95 393,-915.95 396.5,-905.95 389.5,-905.95"/>
</g>
<!-- Plan22&#45;&gt;Plan20 -->
<g id="edge7" class="edge">
<title>Plan22&#45;&gt;Plan20</title>
<path fill="none" stroke="black" d="M393.99,-952.35C394.43,-960.07 394.96,-969.34 395.45,-977.94"/>
<polygon fill="black" stroke="black" points="391.96,-978.16 396.02,-987.95 398.95,-977.76 391.96,-978.16"/>
</g>
<!-- Plan17 -->
<g id="node29" class="node">
<title>Plan17</title>
<polygon fill="black" stroke="black" points="330.48,-1168.58 173.52,-1168.58 173.52,-1132.21 330.48,-1132.21 330.48,-1168.58"/>
<text text-anchor="middle" x="252" y="-1153.53" font-family="Times,serif" font-size="14.00" fill="white">RedistributeMotion 3→3</text>
<text text-anchor="middle" x="252" y="-1138.85" font-family="Times,serif" font-size="14.00" fill="white">Rows=10 Width=112</text>
</g>
<!-- Plan18&#45;&gt;Plan17 -->
<g id="edge25" class="edge">
<title>Plan18&#45;&gt;Plan17</title>
<path fill="none" stroke="black" d="M252,-1096.08C252,-1103.83 252,-1113.19 252,-1121.89"/>
<polygon fill="black" stroke="black" points="248.5,-1122.03 252,-1132.03 255.5,-1122.03 248.5,-1122.03"/>
</g>
<!-- Plan28 -->
<g id="node13" class="node">
<title>Plan28</title>
<polygon fill="black" stroke="black" points="460.88,-736.05 317.12,-736.05 317.12,-700.05 460.88,-700.05 460.88,-736.05"/>
<text text-anchor="middle" x="389" y="-720.85" font-family="Times,serif" font-size="14.00" fill="white">SeqScan partsupp</text>
<text text-anchor="middle" x="389" y="-706.85" font-family="Times,serif" font-size="14.00" fill="white">Rows=7000 Width=16</text>
</g>
<!-- Plan27 -->
<g id="node14" class="node">
<title>Plan27</title>
<polygon fill="black" stroke="black" points="310.88,-808.05 167.12,-808.05 167.12,-772.05 310.88,-772.05 310.88,-808.05"/>
<text text-anchor="middle" x="239" y="-792.85" font-family="Times,serif" font-size="14.00" fill="white">HashJoin Inner</text>
<text text-anchor="middle" x="239" y="-778.85" font-family="Times,serif" font-size="14.00" fill="white">Rows=2122 Width=12</text>
</g>
<!-- Plan28&#45;&gt;Plan27 -->
<g id="edge9" class="edge">
<title>Plan28&#45;&gt;Plan27</title>
<path fill="none" stroke="black" d="M352.31,-736.17C331.98,-745.66 306.53,-757.54 284.9,-767.63"/>
<polygon fill="black" stroke="black" points="283.16,-764.58 275.57,-771.98 286.12,-770.93 283.16,-764.58"/>
</g>
<!-- Plan26 -->
<g id="node26" class="node">
<title>Plan26</title>
<polygon fill="black" stroke="black" points="310.88,-880.05 167.12,-880.05 167.12,-844.05 310.88,-844.05 310.88,-880.05"/>
<text text-anchor="middle" x="239" y="-864.85" font-family="Times,serif" font-size="14.00" fill="white">HashedAggregate</text>
<text text-anchor="middle" x="239" y="-850.85" font-family="Times,serif" font-size="14.00" fill="white">Rows=1000 Width=12</text>
</g>
<!-- Plan27&#45;&gt;Plan26 -->
<g id="edge21" class="edge">
<title>Plan27&#45;&gt;Plan26</title>
<path fill="none" stroke="black" d="M239,-808.35C239,-816.07 239,-825.34 239,-833.94"/>
<polygon fill="black" stroke="black" points="235.5,-833.95 239,-843.95 242.5,-833.95 235.5,-833.95"/>
</g>
<!-- Plan33 -->
<g id="node15" class="node">
<title>Plan33</title>
<polygon fill="black" stroke="black" points="405.38,-503.37 268.62,-503.37 268.62,-467.37 405.38,-467.37 405.38,-503.37"/>
<text text-anchor="middle" x="337" y="-488.17" font-family="Times,serif" font-size="14.00" fill="white">SeqScan supplier</text>
<text text-anchor="middle" x="337" y="-474.17" font-family="Times,serif" font-size="14.00" fill="white">Rows=6100 Width=8</text>
</g>
<!-- Plan31 -->
<g id="node16" class="node">
<title>Plan31</title>
<polygon fill="black" stroke="black" points="299.88,-575.37 170.12,-575.37 170.12,-539.37 299.88,-539.37 299.88,-575.37"/>
<text text-anchor="middle" x="235" y="-560.17" font-family="Times,serif" font-size="14.00" fill="white">HashJoin Inner</text>
<text text-anchor="middle" x="235" y="-546.17" font-family="Times,serif" font-size="14.00" fill="white">Rows=303 Width=4</text>
</g>
<!-- Plan33&#45;&gt;Plan31 -->
<g id="edge10" class="edge">
<title>Plan33&#45;&gt;Plan31</title>
<path fill="none" stroke="black" d="M312.05,-503.49C298.96,-512.47 282.74,-523.6 268.56,-533.33"/>
<polygon fill="black" stroke="black" points="266.31,-530.63 260.05,-539.18 270.27,-536.4 266.31,-530.63"/>
</g>
<!-- Plan30 -->
<g id="node24" class="node">
<title>Plan30</title>
<polygon fill="black" stroke="black" points="307.02,-647.89 162.98,-647.89 162.98,-611.52 307.02,-611.52 307.02,-647.89"/>
<text text-anchor="middle" x="235" y="-632.85" font-family="Times,serif" font-size="14.00" fill="white">BroadcastMotion 3→3</text>
<text text-anchor="middle" x="235" y="-618.17" font-family="Times,serif" font-size="14.00" fill="white">Rows=910 Width=4</text>
</g>
<!-- Plan31&#45;&gt;Plan30 -->
<g id="edge18" class="edge">
<title>Plan31&#45;&gt;Plan30</title>
<path fill="none" stroke="black" d="M235,-575.39C235,-583.14 235,-592.51 235,-601.21"/>
<polygon fill="black" stroke="black" points="231.5,-601.35 235,-611.35 238.5,-601.35 231.5,-601.35"/>
</g>
<!-- Plan38 -->
<g id="node17" class="node">
<title>Plan38</title>
<polygon fill="black" stroke="black" points="328.38,-270.68 191.62,-270.68 191.62,-234.68 328.38,-234.68 328.38,-270.68"/>
<text text-anchor="middle" x="260" y="-255.48" font-family="Times,serif" font-size="14.00" fill="white">SeqScan nation</text>
<text text-anchor="middle" x="260" y="-241.48" font-family="Times,serif" font-size="14.00" fill="white">Rows=7000 Width=8</text>
</g>
<!-- Plan36 -->
<g id="node18" class="node">
<title>Plan36</title>
<polygon fill="black" stroke="black" points="247.38,-342.68 124.62,-342.68 124.62,-306.68 247.38,-306.68 247.38,-342.68"/>
<text text-anchor="middle" x="186" y="-327.48" font-family="Times,serif" font-size="14.00" fill="white">HashJoin Inner</text>
<text text-anchor="middle" x="186" y="-313.48" font-family="Times,serif" font-size="14.00" fill="white">Rows=50 Width=4</text>
</g>
<!-- Plan38&#45;&gt;Plan36 -->
<g id="edge11" class="edge">
<title>Plan38&#45;&gt;Plan36</title>
<path fill="none" stroke="black" d="M241.71,-270.99C232.57,-279.63 221.36,-290.24 211.4,-299.66"/>
<polygon fill="black" stroke="black" points="208.94,-297.16 204.08,-306.58 213.75,-302.25 208.94,-297.16"/>
</g>
<!-- Plan35 -->
<g id="node22" class="node">
<title>Plan35</title>
<polygon fill="black" stroke="black" points="258.02,-415.21 113.98,-415.21 113.98,-378.84 258.02,-378.84 258.02,-415.21"/>
<text text-anchor="middle" x="186" y="-400.17" font-family="Times,serif" font-size="14.00" fill="white">BroadcastMotion 3→3</text>
<text text-anchor="middle" x="186" y="-385.48" font-family="Times,serif" font-size="14.00" fill="white">Rows=149 Width=4</text>
</g>
<!-- Plan36&#45;&gt;Plan35 -->
<g id="edge15" class="edge">
<title>Plan36&#45;&gt;Plan35</title>
<path fill="none" stroke="black" d="M186,-342.71C186,-350.46 186,-359.82 186,-368.53"/>
<polygon fill="black" stroke="black" points="182.5,-368.67 186,-378.67 189.5,-368.67 182.5,-368.67"/>
</g>
<!-- Plan41 -->
<g id="node19" class="node">
<title>Plan41</title>
<polygon fill="black" stroke="black" points="170.88,-110 55.12,-110 55.12,-74 170.88,-74 170.88,-110"/>
<text text-anchor="middle" x="113" y="-94.8" font-family="Times,serif" font-size="14.00" fill="white">SeqScan region</text>
<text text-anchor="middle" x="113" y="-80.8" font-family="Times,serif" font-size="14.00" fill="white">Rows=7 Width=4</text>
</g>
<!-- Plan40 -->
<g id="node20" class="node">
<title>Plan40</title>
<polygon fill="black" stroke="black" points="185.02,-182.53 40.98,-182.53 40.98,-146.16 185.02,-146.16 185.02,-182.53"/>
<text text-anchor="middle" x="113" y="-167.48" font-family="Times,serif" font-size="14.00" fill="white">BroadcastMotion 3→3</text>
<text text-anchor="middle" x="113" y="-152.8" font-family="Times,serif" font-size="14.00" fill="white">Rows=21 Width=4</text>
</g>
<!-- Plan41&#45;&gt;Plan40 -->
<g id="edge12" class="edge">
<title>Plan41&#45;&gt;Plan40</title>
<path fill="none" stroke="black" d="M113,-110.03C113,-117.77 113,-127.14 113,-135.84"/>
<polygon fill="black" stroke="black" points="109.5,-135.98 113,-145.98 116.5,-135.98 109.5,-135.98"/>
</g>
<!-- Plan39 -->
<g id="node21" class="node">
<title>Plan39</title>
<polygon fill="black" stroke="black" points="174.38,-270.68 51.62,-270.68 51.62,-234.68 174.38,-234.68 174.38,-270.68"/>
<text text-anchor="middle" x="113" y="-255.48" font-family="Times,serif" font-size="14.00" fill="white">Hash</text>
<text text-anchor="middle" x="113" y="-241.48" font-family="Times,serif" font-size="14.00" fill="white">Rows=21 Width=4</text>
</g>
<!-- Plan40&#45;&gt;Plan39 -->
<g id="edge13" class="edge">
<title>Plan40&#45;&gt;Plan39</title>
<path fill="none" stroke="black" d="M113,-182.81C113,-194.71 113,-210.7 113,-224.28"/>
<polygon fill="black" stroke="black" points="109.5,-224.53 113,-234.53 116.5,-224.53 109.5,-224.53"/>
</g>
<!-- Plan39&#45;&gt;Plan36 -->
<g id="edge14" class="edge">
<title>Plan39&#45;&gt;Plan36</title>
<path fill="none" stroke="black" d="M131.04,-270.99C140.06,-279.63 151.12,-290.24 160.94,-299.66"/>
<polygon fill="black" stroke="black" points="158.52,-302.18 168.16,-306.58 163.37,-297.13 158.52,-302.18"/>
</g>
<!-- Plan34 -->
<g id="node23" class="node">
<title>Plan34</title>
<polygon fill="black" stroke="black" points="250.88,-503.37 121.12,-503.37 121.12,-467.37 250.88,-467.37 250.88,-503.37"/>
<text text-anchor="middle" x="186" y="-488.17" font-family="Times,serif" font-size="14.00" fill="white">Hash</text>
<text text-anchor="middle" x="186" y="-474.17" font-family="Times,serif" font-size="14.00" fill="white">Rows=149 Width=4</text>
</g>
<!-- Plan35&#45;&gt;Plan34 -->
<g id="edge16" class="edge">
<title>Plan35&#45;&gt;Plan34</title>
<path fill="none" stroke="black" d="M186,-415.5C186,-427.4 186,-443.39 186,-456.97"/>
<polygon fill="black" stroke="black" points="182.5,-457.22 186,-467.22 189.5,-457.22 182.5,-457.22"/>
</g>
<!-- Plan34&#45;&gt;Plan31 -->
<g id="edge17" class="edge">
<title>Plan34&#45;&gt;Plan31</title>
<path fill="none" stroke="black" d="M198.11,-503.67C203.87,-511.89 210.86,-521.88 217.21,-530.95"/>
<polygon fill="black" stroke="black" points="214.42,-533.08 223.03,-539.26 220.16,-529.06 214.42,-533.08"/>
</g>
<!-- Plan29 -->
<g id="node25" class="node">
<title>Plan29</title>
<polygon fill="black" stroke="black" points="299.88,-736.05 170.12,-736.05 170.12,-700.05 299.88,-700.05 299.88,-736.05"/>
<text text-anchor="middle" x="235" y="-720.85" font-family="Times,serif" font-size="14.00" fill="white">Hash</text>
<text text-anchor="middle" x="235" y="-706.85" font-family="Times,serif" font-size="14.00" fill="white">Rows=910 Width=4</text>
</g>
<!-- Plan30&#45;&gt;Plan29 -->
<g id="edge19" class="edge">
<title>Plan30&#45;&gt;Plan29</title>
<path fill="none" stroke="black" d="M235,-648.18C235,-660.08 235,-676.07 235,-689.65"/>
<polygon fill="black" stroke="black" points="231.5,-689.9 235,-699.9 238.5,-689.9 231.5,-689.9"/>
</g>
<!-- Plan29&#45;&gt;Plan27 -->
<g id="edge20" class="edge">
<title>Plan29&#45;&gt;Plan27</title>
<path fill="none" stroke="black" d="M235.99,-736.35C236.43,-744.07 236.96,-753.34 237.45,-761.94"/>
<polygon fill="black" stroke="black" points="233.96,-762.16 238.02,-771.95 240.95,-761.76 233.96,-762.16"/>
</g>
<!-- Plan25 -->
<g id="node27" class="node">
<title>Plan25</title>
<polygon fill="black" stroke="black" points="310.88,-952.05 167.12,-952.05 167.12,-916.05 310.88,-916.05 310.88,-952.05"/>
<text text-anchor="middle" x="239" y="-936.85" font-family="Times,serif" font-size="14.00" fill="white">SubqueryScan</text>
<text text-anchor="middle" x="239" y="-922.85" font-family="Times,serif" font-size="14.00" fill="white">Rows=1000 Width=12</text>
</g>
<!-- Plan26&#45;&gt;Plan25 -->
<g id="edge22" class="edge">
<title>Plan26&#45;&gt;Plan25</title>
<path fill="none" stroke="black" d="M239,-880.35C239,-888.07 239,-897.34 239,-905.94"/>
<polygon fill="black" stroke="black" points="235.5,-905.95 239,-915.95 242.5,-905.95 235.5,-905.95"/>
</g>
<!-- Plan24 -->
<g id="node28" class="node">
<title>Plan24</title>
<polygon fill="black" stroke="black" points="310.88,-1024.05 167.12,-1024.05 167.12,-988.05 310.88,-988.05 310.88,-1024.05"/>
<text text-anchor="middle" x="239" y="-1008.85" font-family="Times,serif" font-size="14.00" fill="white">Hash</text>
<text text-anchor="middle" x="239" y="-994.85" font-family="Times,serif" font-size="14.00" fill="white">Rows=1000 Width=12</text>
</g>
<!-- Plan25&#45;&gt;Plan24 -->
<g id="edge23" class="edge">
<title>Plan25&#45;&gt;Plan24</title>
<path fill="none" stroke="black" d="M239,-952.35C239,-960.07 239,-969.34 239,-977.94"/>
<polygon fill="black" stroke="black" points="235.5,-977.95 239,-987.95 242.5,-977.95 235.5,-977.95"/>
</g>
<!-- Plan24&#45;&gt;Plan18 -->
<g id="edge24" class="edge">
<title>Plan24&#45;&gt;Plan18</title>
<path fill="none" stroke="black" d="M242.21,-1024.35C243.65,-1032.07 245.37,-1041.34 246.96,-1049.94"/>
<polygon fill="black" stroke="black" points="243.56,-1050.75 248.82,-1059.95 250.44,-1049.48 243.56,-1050.75"/>
</g>
<!-- Plan16 -->
<g id="node30" class="node">
<title>Plan16</title>
<polygon fill="black" stroke="black" points="319.87,-1256.73 184.13,-1256.73 184.13,-1220.73 319.87,-1220.73 319.87,-1256.73"/>
<text text-anchor="middle" x="252" y="-1241.53" font-family="Times,serif" font-size="14.00" fill="white">Hash</text>
<text text-anchor="middle" x="252" y="-1227.53" font-family="Times,serif" font-size="14.00" fill="white">Rows=10 Width=112</text>
</g>
<!-- Plan17&#45;&gt;Plan16 -->
<g id="edge26" class="edge">
<title>Plan17&#45;&gt;Plan16</title>
<path fill="none" stroke="black" d="M252,-1168.87C252,-1180.76 252,-1196.76 252,-1210.33"/>
<polygon fill="black" stroke="black" points="248.5,-1210.58 252,-1220.58 255.5,-1210.58 248.5,-1210.58"/>
</g>
<!-- Plan16&#45;&gt;Plan13 -->
<g id="edge27" class="edge">
<title>Plan16&#45;&gt;Plan13</title>
<path fill="none" stroke="black" d="M258.43,-1257.04C261.36,-1264.92 264.89,-1274.43 268.14,-1283.19"/>
<polygon fill="black" stroke="black" points="264.88,-1284.47 271.65,-1292.63 271.45,-1282.04 264.88,-1284.47"/>
</g>
<!-- Plan11 -->
<g id="node32" class="node">
<title>Plan11</title>
<polygon fill="black" stroke="black" points="346.38,-1489.42 209.62,-1489.42 209.62,-1453.42 346.38,-1453.42 346.38,-1489.42"/>
<text text-anchor="middle" x="278" y="-1474.22" font-family="Times,serif" font-size="14.00" fill="white">Hash</text>
<text text-anchor="middle" x="278" y="-1460.22" font-family="Times,serif" font-size="14.00" fill="white">Rows=10 Width=606</text>
</g>
<!-- Plan12&#45;&gt;Plan11 -->
<g id="edge29" class="edge">
<title>Plan12&#45;&gt;Plan11</title>
<path fill="none" stroke="black" d="M278,-1401.55C278,-1413.45 278,-1429.44 278,-1443.02"/>
<polygon fill="black" stroke="black" points="274.5,-1443.27 278,-1453.27 281.5,-1443.27 274.5,-1443.27"/>
</g>
<!-- Plan11&#45;&gt;Plan9 -->
<g id="edge30" class="edge">
<title>Plan11&#45;&gt;Plan9</title>
<path fill="none" stroke="black" d="M278.2,-1489.82C278.34,-1501.67 278.53,-1517.6 278.68,-1531.13"/>
<polygon fill="black" stroke="black" points="275.19,-1531.38 278.8,-1541.33 282.18,-1531.29 275.19,-1531.38"/>
</g>
<!-- Plan8&#45;&gt;Plan4 -->
<g id="edge32" class="edge">
<title>Plan8&#45;&gt;Plan4</title>
<path fill="none" stroke="black" d="M279,-1649.79C279,-1657.53 279,-1666.9 279,-1675.6"/>
<polygon fill="black" stroke="black" points="275.5,-1675.74 279,-1685.74 282.5,-1675.74 275.5,-1675.74"/>
</g>
<!-- Plan1 -->
<g id="node35" class="node">
<title>Plan1</title>
<polygon fill="black" stroke="black" points="347.38,-1866.63 210.62,-1866.63 210.62,-1830.26 347.38,-1830.26 347.38,-1866.63"/>
<text text-anchor="middle" x="279" y="-1851.59" font-family="Times,serif" font-size="14.00" fill="white">GatherMotion 3→1</text>
<text text-anchor="middle" x="279" y="-1836.9" font-family="Times,serif" font-size="14.00" fill="white">Rows=10 Width=706</text>
</g>
<!-- Plan2&#45;&gt;Plan1 -->
<g id="edge34" class="edge">
<title>Plan2&#45;&gt;Plan1</title>
<path fill="none" stroke="black" d="M279,-1794.13C279,-1801.88 279,-1811.24 279,-1819.95"/>
<polygon fill="black" stroke="black" points="275.5,-1820.08 279,-1830.08 282.5,-1820.08 275.5,-1820.08"/>
</g>
</g>
</svg>
